<?xml version="1.0" encoding="UTF-8"?>
<svg id="Capa_1" xmlns="http://www.w3.org/2000/svg" version="1.1" viewBox="0 0 1090.9 478.5">
  <!-- Generator: Adobe Illustrator 29.4.0, SVG Export Plug-In . SVG Version: 2.1.0 Build 152)  -->
  <defs>
    <style>
      .st0 {
        fill: #010101;
        fill-rule: evenodd;
      }
    </style>
  </defs>
  <path class="st0" d="M186.6,104.7c4.6-60.2-130.3-63.8-129.8,0-1,31.5,134.1,30.4,129.8,0h0ZM178.6,318.5c13.4-3,4.4-158.9,6.8-169.2-41.7,11-87.2,11-128.8,0,3.1,13.3-8.2,165.5,8.3,170.8l55.8,46.6,57.9-48.1h0ZM11,334.4c-.1-30.7.1-224.6.2-250.9,10.6-118.9,230.3-108.1,219.7,15.2,0,11.1,0,39,0,50.5v185.6c0,.6,0,1.3,0,1.9,1.1,19.3-76.5,70.8-87.8,84.3h59.5c37.8-4.1,37.8,63.1,0,59H39.8c-18.9,0-28.3-9.8-28.3-29.5-3.7-44.5,62-25.8,87.1-29.5-12.2-14.8-90.7-65.2-87.5-86.7h0Z"/>
  <g>
    <path class="st0" d="M1065.5,385.8v-27.1c-1.7-14.8,26.8-14.8,25.1,0v63.6c0,7.3-4.2,11-12.6,11-11.2,2.4-32.2-32.7-39.2-38.3v27.3c1.7,14.8-26.8,14.8-25.1,0v-63.6c0-7.3,4.2-11,12.6-11,11.9-2.4,31.7,32.3,39.2,38.2Z"/>
    <path class="st0" d="M913.4,380.8h-19c-18.2-.3-13.1,25.9,3.9,21.3,1.2,5.8-2.3,9.6-9.7,9.5-39.2-3-19.8-60.8,14.8-40.9,9.5,6.6,18.7,1,19-9.5-18.1-32.5-84.5-13.6-79.6,28.5-6.3,42,68.4,63.3,80.4,25.9-1.5-8.7,5.4-36-9.8-34.7Z"/>
    <path class="st0" d="M753,422.3c1.7,14.8-26.8,14.8-25.1,0v-63.6c0-7.4,4.2-11,12.6-11s12.6,3.7,12.6,11v63.6h0Z"/>
    <path class="st0" d="M609.5,433.5c-12.3-.5-35-2-35.2-17.7,0-6.6,3-10,9-10,8.1,3.8,47.2,14.8,28.7-5-3.9-2.6-19.8-7.1-23.3-9.3-20.2-13.3-6.2-47.6,17-46,11.5-.3,34.4,3.3,30.6,16.2-4.5,16.7-19.6,2.7-30.4,3.3-19.3,8.1,16.9,17.4,22.4,20.8,20.7,14.4,6.3,50.1-18.9,47.7h0Z"/>
    <path class="st0" d="M474.8,433.3c13.1,1.4,13.1-21.6,0-20.2h-17.9v-12.7c8.3-.7,26.3,3.9,25.1-10.2,1.2-14-16.8-9.4-25.1-10.2v-12.3h17.9c13.1,1.4,13.1-21.6,0-20.2h-30.4c-8.4,0-12.5,3.7-12.5,11v63.6c-1.6,18,33.2,8.9,43,11h0Z"/>
    <path class="st0" d="M309.2,433.3c-9.7-1.7-39.5,6.1-38-11v-63.6c-1.5-17.1,28.4-9.4,38-11,43.5,3.7,43.5,81.9,0,85.6h0ZM318.8,389.7c.2-18.5-8.3-26-22.5-24.8v50.7c14.4,1.3,22.7-7.9,22.5-25.9h0Z"/>
  </g>
  <path class="st0" d="M434.8,190.2c26.6,37,146.5,122.8,43.5,145.7-27.2,2.8-102.6-100.8-122.1-116v78.7c5.8,50.1-91,50-85.1,0V83.2c0-24.9,14.2-37.4,42.5-37.4s42.5,12.5,42.5,37.4v77.8c20.1-15.7,94.8-117.9,122.1-115.8,102.7,23-16.9,108.4-43.5,145h0Z"/>
  <path class="st0" d="M683.9,335.9c44.4,4.7,44.3-73,0-68.3h-60.6v-43c28.3-2.5,89,13.1,85.1-34.4,4-47.4-56.9-32-85.1-34.4v-41.7c28.9-3.5,97.5,15.5,93.7-34.2,0-22.7-11-34.2-33.1-34.2h-103.1c-28.4,0-42.5,12.5-42.5,37.4v215.4c0,24.9,14.2,37.3,42.5,37.3h103.1,0Z"/>
  <path class="st0" d="M902.2,190.2c26.6,37,146.5,122.8,43.5,145.7-27.2,2.8-102.6-100.8-122.1-116v78.7c5.8,50.1-91,50-85.1,0V83.2c0-24.9,14.2-37.4,42.5-37.4s42.5,12.5,42.5,37.4v77.8c20.1-15.7,94.8-117.9,122.1-115.8,102.7,23-16.9,108.4-43.5,145h0Z"/>
  <path class="st0" d="M1090.7,298.5c0,24.9-14.2,37.3-42.5,37.3s-42.5-12.5-42.5-37.3V83.2c-5.9-50.1,90.9-50.2,85.1,0v215.3h0Z"/>
</svg>